<svg width="1440" height="391" viewBox="0 0 1440 391" fill="none" xmlns="http://www.w3.org/2000/svg">
<g clip-path="url(#clip0)">
<path d="M1440 0H-2V392H1440V0Z" fill="#001D3D"/>
<path d="M-2 229.973L32.4478 230.431C66.8956 230.823 135.791 231.737 204.366 238.597C273.102 245.457 341.356 258.263 410.092 265.776C478.667 273.289 547.562 275.511 616.137 273.093C684.873 270.676 753.127 263.751 821.863 256.956C890.438 250.227 959.333 243.693 1027.91 246.503C1096.64 249.377 1164.9 261.529 1233.63 268.063C1302.21 274.596 1371.1 275.511 1405.55 275.903L1440 276.36V392.653H1405.55C1371.1 392.653 1302.21 392.653 1233.63 392.653C1164.9 392.653 1096.64 392.653 1027.91 392.653C959.333 392.653 890.438 392.653 821.863 392.653C753.127 392.653 684.873 392.653 616.137 392.653C547.562 392.653 478.667 392.653 410.092 392.653C341.356 392.653 273.102 392.653 204.366 392.653C135.791 392.653 66.8956 392.653 32.4478 392.653H-2V229.973Z" fill="#FFC300"/>
<path d="M-2 282.893L32.4478 283.089C66.8956 283.351 135.791 283.743 204.366 283.024C273.102 282.24 341.356 280.28 410.092 276.491C478.667 272.636 547.562 267.017 616.137 266.56C684.873 266.103 753.127 270.937 821.863 276.556C890.438 282.24 959.333 288.773 1027.91 288.447C1096.64 288.12 1164.9 280.933 1233.63 282.436C1302.21 284.004 1371.1 294.196 1405.55 299.357L1440 304.453V392.653H1405.55C1371.1 392.653 1302.21 392.653 1233.63 392.653C1164.9 392.653 1096.64 392.653 1027.91 392.653C959.333 392.653 890.438 392.653 821.863 392.653C753.127 392.653 684.873 392.653 616.137 392.653C547.562 392.653 478.667 392.653 410.092 392.653C341.356 392.653 273.102 392.653 204.366 392.653C135.791 392.653 66.8956 392.653 32.4478 392.653H-2V282.893Z" fill="#FF9624"/>
<path d="M-2 293.347L32.4478 298.247C66.8956 303.147 135.791 312.947 204.366 319.676C273.102 326.471 341.356 330.129 410.092 325.556C478.667 320.983 547.562 308.177 616.137 308.047C684.873 307.916 753.127 320.591 821.863 320.133C890.438 319.676 959.333 306.217 1027.91 301.971C1096.64 297.724 1164.9 302.689 1233.63 306.936C1302.21 311.183 1371.1 314.711 1405.55 316.409L1440 318.173V392.653H1405.55C1371.1 392.653 1302.21 392.653 1233.63 392.653C1164.9 392.653 1096.64 392.653 1027.91 392.653C959.333 392.653 890.438 392.653 821.863 392.653C753.127 392.653 684.873 392.653 616.137 392.653C547.562 392.653 478.667 392.653 410.092 392.653C341.356 392.653 273.102 392.653 204.366 392.653C135.791 392.653 66.8956 392.653 32.4478 392.653H-2V293.347Z" fill="#FF6A40"/>
<path d="M-2 318.173L32.4478 321.767C66.8956 325.36 135.791 332.547 204.366 334.507C273.102 336.467 341.356 333.2 410.092 331.567C478.667 329.933 547.562 329.933 616.137 333.984C684.873 337.969 753.127 346.071 821.863 349.533C890.438 352.996 959.333 351.951 1027.91 351.951C1096.64 351.951 1164.9 352.996 1233.63 352.996C1302.21 352.996 1371.1 351.951 1405.55 351.363L1440 350.84V392.653H1405.55C1371.1 392.653 1302.21 392.653 1233.63 392.653C1164.9 392.653 1096.64 392.653 1027.91 392.653C959.333 392.653 890.438 392.653 821.863 392.653C753.127 392.653 684.873 392.653 616.137 392.653C547.562 392.653 478.667 392.653 410.092 392.653C341.356 392.653 273.102 392.653 204.366 392.653C135.791 392.653 66.8956 392.653 32.4478 392.653H-2V318.173Z" fill="#E94256"/>
<path d="M-2 365.867L32.4478 366.977C66.8956 368.023 135.791 370.244 204.366 369.133C273.102 368.023 341.356 363.711 410.092 363.907C478.667 364.103 547.562 368.937 616.137 369.656C684.873 370.44 753.127 367.173 821.863 363.384C890.438 359.529 959.333 355.217 1027.91 355.087C1096.64 354.956 1164.9 359.137 1233.63 359.137C1302.21 359.137 1371.1 354.956 1405.55 352.931L1440 350.84V392.653H1405.55C1371.1 392.653 1302.21 392.653 1233.63 392.653C1164.9 392.653 1096.64 392.653 1027.91 392.653C959.333 392.653 890.438 392.653 821.863 392.653C753.127 392.653 684.873 392.653 616.137 392.653C547.562 392.653 478.667 392.653 410.092 392.653C341.356 392.653 273.102 392.653 204.366 392.653C135.791 392.653 66.8956 392.653 32.4478 392.653H-2V365.867Z" fill="#C62368"/>
</g>
<defs>
<clipPath id="clip0">
<rect width="1442" height="392" fill="white" transform="translate(-2)"/>
</clipPath>
</defs>
</svg>
