<svg width="1440" height="900" viewBox="0 0 1440 900" fill="none" xmlns="http://www.w3.org/2000/svg">
<g clip-path="url(#clip0)">
<path d="M1440 150H540V750H1440V150Z" fill="#001D3D"/>
<path d="M927 744C1008.19 744 1074 678.186 1074 597C1074 515.814 1008.19 450 927 450C845.814 450 780 515.814 780 597C780 678.186 845.814 744 927 744Z" fill="#FFC300"/>
<path d="M1410 748C1445.9 748 1475 718.899 1475 683C1475 647.101 1445.9 618 1410 618C1374.1 618 1345 647.101 1345 683C1345 718.899 1374.1 748 1410 748Z" fill="#FFC300"/>
<path d="M1237 367C1286.15 367 1326 327.153 1326 278C1326 228.847 1286.15 189 1237 189C1187.85 189 1148 228.847 1148 278C1148 327.153 1187.85 367 1237 367Z" fill="#FFC300"/>
<path d="M592 -0.5C592 -0.5 533.5 136 294 148.5C54.5 161 0.5 271 0.5 271" stroke="#003D80"/>
<path d="M616.5 -1C616.5 -1 533.5 161.5 294 174C54.5 186.5 0.5 296.5 0.5 296.5" stroke="#003D80"/>
<path d="M638 0C638 0 533.5 190.5 294 203C54.5 215.5 0.5 325.5 0.5 325.5" stroke="#003D80"/>
</g>
<defs>
<clipPath id="clip0">
<rect width="1440" height="900" fill="white"/>
</clipPath>
</defs>
</svg>
