<svg width="85" height="24" viewBox="0 0 85 24" fill="none" xmlns="http://www.w3.org/2000/svg">
<path d="M22.24 18.096C21.9307 18.096 21.68 18.0053 21.488 17.824C21.3067 17.632 21.216 17.376 21.216 17.056V7.696C21.216 7.38667 21.3013 7.14667 21.472 6.976C21.6533 6.80533 21.8987 6.72 22.208 6.72H26.144C27.3493 6.72 28.288 7.024 28.96 7.632C29.632 8.22933 29.968 9.072 29.968 10.16C29.968 11.248 29.632 12.096 28.96 12.704C28.288 13.312 27.3493 13.616 26.144 13.616H23.28V17.056C23.28 17.376 23.184 17.632 22.992 17.824C22.8107 18.0053 22.56 18.096 22.24 18.096ZM25.888 12.032C27.3067 12.032 28.016 11.4133 28.016 10.176C28.016 8.93867 27.3067 8.32 25.888 8.32H23.28V12.032H25.888ZM34.8893 18.128C34.0893 18.128 33.3853 17.9627 32.7773 17.632C32.1799 17.3013 31.7159 16.8267 31.3853 16.208C31.0546 15.5893 30.8893 14.8693 30.8893 14.048C30.8893 13.2267 31.0546 12.512 31.3853 11.904C31.7159 11.2853 32.1799 10.8107 32.7773 10.48C33.3853 10.1493 34.0893 9.984 34.8893 9.984C35.6893 9.984 36.3879 10.1493 36.9853 10.48C37.5933 10.8107 38.0573 11.2853 38.3773 11.904C38.7079 12.512 38.8733 13.2267 38.8733 14.048C38.8733 14.8693 38.7079 15.5893 38.3773 16.208C38.0573 16.8267 37.5933 17.3013 36.9853 17.632C36.3879 17.9627 35.6893 18.128 34.8893 18.128ZM34.8733 16.576C35.5239 16.576 36.0199 16.3627 36.3613 15.936C36.7026 15.5093 36.8733 14.88 36.8733 14.048C36.8733 13.2267 36.7026 12.6027 36.3613 12.176C36.0199 11.7387 35.5293 11.52 34.8893 11.52C34.2493 11.52 33.7533 11.7387 33.4013 12.176C33.0599 12.6027 32.8893 13.2267 32.8893 14.048C32.8893 14.88 33.0599 15.5093 33.4013 15.936C33.7426 16.3627 34.2333 16.576 34.8733 16.576ZM44.8924 10.016C45.1697 9.99467 45.3884 10.0533 45.5484 10.192C45.7084 10.3307 45.7884 10.5387 45.7884 10.816C45.7884 11.104 45.719 11.3173 45.5804 11.456C45.4417 11.5947 45.191 11.6853 44.8284 11.728L44.3484 11.776C43.719 11.84 43.255 12.0533 42.9564 12.416C42.6684 12.7787 42.5244 13.232 42.5244 13.776V17.136C42.5244 17.4453 42.4284 17.6853 42.2364 17.856C42.0444 18.016 41.8044 18.096 41.5164 18.096C41.2284 18.096 40.9884 18.016 40.7964 17.856C40.615 17.6853 40.5244 17.4453 40.5244 17.136V10.944C40.5244 10.6453 40.615 10.416 40.7964 10.256C40.9884 10.096 41.223 10.016 41.5004 10.016C41.7777 10.016 42.0017 10.096 42.1724 10.256C42.343 10.4053 42.4284 10.624 42.4284 10.912V11.552C42.631 11.0827 42.9297 10.72 43.3244 10.464C43.7297 10.208 44.1777 10.064 44.6684 10.032L44.8924 10.016ZM51.4321 16.608C51.9655 16.64 52.2321 16.88 52.2321 17.328C52.2321 17.584 52.1255 17.7813 51.9121 17.92C51.7095 18.048 51.4161 18.1013 51.0321 18.08L50.6001 18.048C48.8081 17.92 47.9121 16.96 47.9121 15.168V11.68H47.1121C46.8241 11.68 46.6001 11.616 46.4401 11.488C46.2908 11.36 46.2161 11.1733 46.2161 10.928C46.2161 10.6827 46.2908 10.496 46.4401 10.368C46.6001 10.24 46.8241 10.176 47.1121 10.176H47.9121V8.704C47.9121 8.416 48.0028 8.18667 48.1841 8.016C48.3655 7.84533 48.6108 7.76 48.9201 7.76C49.2188 7.76 49.4588 7.84533 49.6401 8.016C49.8215 8.18667 49.9121 8.416 49.9121 8.704V10.176H51.2721C51.5601 10.176 51.7788 10.24 51.9281 10.368C52.0881 10.496 52.1681 10.6827 52.1681 10.928C52.1681 11.1733 52.0881 11.36 51.9281 11.488C51.7788 11.616 51.5601 11.68 51.2721 11.68H49.9121V15.312C49.9121 16.1013 50.2748 16.5227 51.0001 16.576L51.4321 16.608ZM57.3045 8.208C56.8138 8.24 56.4565 8.38933 56.2325 8.656C56.0085 8.92267 55.8965 9.30667 55.8965 9.808V10.176H57.2565C57.8538 10.176 58.1525 10.4267 58.1525 10.928C58.1525 11.4293 57.8538 11.68 57.2565 11.68H55.8965V17.136C55.8965 17.4453 55.8005 17.68 55.6085 17.84C55.4272 18 55.1925 18.08 54.9045 18.08C54.6165 18.08 54.3765 18 54.1845 17.84C53.9925 17.68 53.8965 17.4453 53.8965 17.136V11.68H53.0965C52.4992 11.68 52.2005 11.4293 52.2005 10.928C52.2005 10.4267 52.4992 10.176 53.0965 10.176H53.8965V10.064C53.8965 9.06133 54.1578 8.27733 54.6805 7.712C55.2138 7.136 55.9605 6.81067 56.9205 6.736L57.3365 6.704C57.7632 6.672 58.0618 6.72 58.2325 6.848C58.4138 6.96533 58.5045 7.152 58.5045 7.408C58.5045 7.86667 58.2432 8.12267 57.7205 8.176L57.3045 8.208ZM62.5768 18.128C61.7768 18.128 61.0728 17.9627 60.4648 17.632C59.8674 17.3013 59.4034 16.8267 59.0728 16.208C58.7421 15.5893 58.5768 14.8693 58.5768 14.048C58.5768 13.2267 58.7421 12.512 59.0728 11.904C59.4034 11.2853 59.8674 10.8107 60.4648 10.48C61.0728 10.1493 61.7768 9.984 62.5768 9.984C63.3768 9.984 64.0754 10.1493 64.6728 10.48C65.2808 10.8107 65.7448 11.2853 66.0648 11.904C66.3954 12.512 66.5608 13.2267 66.5608 14.048C66.5608 14.8693 66.3954 15.5893 66.0648 16.208C65.7448 16.8267 65.2808 17.3013 64.6728 17.632C64.0754 17.9627 63.3768 18.128 62.5768 18.128ZM62.5608 16.576C63.2114 16.576 63.7074 16.3627 64.0488 15.936C64.3901 15.5093 64.5608 14.88 64.5608 14.048C64.5608 13.2267 64.3901 12.6027 64.0488 12.176C63.7074 11.7387 63.2168 11.52 62.5768 11.52C61.9368 11.52 61.4408 11.7387 61.0888 12.176C60.7474 12.6027 60.5768 13.2267 60.5768 14.048C60.5768 14.88 60.7474 15.5093 61.0888 15.936C61.4301 16.3627 61.9208 16.576 62.5608 16.576ZM69.2039 18.096C68.9159 18.096 68.6759 18.016 68.4839 17.856C68.3025 17.6853 68.2119 17.4453 68.2119 17.136V7.584C68.2119 7.27467 68.3025 7.04 68.4839 6.88C68.6759 6.72 68.9159 6.64 69.2039 6.64C69.4919 6.64 69.7319 6.72 69.9239 6.88C70.1159 7.04 70.2119 7.27467 70.2119 7.584V17.136C70.2119 17.4453 70.1159 17.6853 69.9239 17.856C69.7319 18.016 69.4919 18.096 69.2039 18.096ZM73.2664 18.096C72.9784 18.096 72.7384 18.016 72.5464 17.856C72.365 17.6853 72.2744 17.4453 72.2744 17.136V10.96C72.2744 10.6507 72.365 10.416 72.5464 10.256C72.7384 10.096 72.9784 10.016 73.2664 10.016C73.5544 10.016 73.7944 10.096 73.9864 10.256C74.1784 10.416 74.2744 10.6507 74.2744 10.96V17.136C74.2744 17.4453 74.1784 17.6853 73.9864 17.856C73.7944 18.016 73.5544 18.096 73.2664 18.096ZM73.2664 8.592C72.9037 8.592 72.6157 8.496 72.4024 8.304C72.189 8.10133 72.0824 7.84 72.0824 7.52C72.0824 7.2 72.189 6.944 72.4024 6.752C72.6157 6.56 72.9037 6.464 73.2664 6.464C73.6184 6.464 73.901 6.56 74.1144 6.752C74.3384 6.944 74.4504 7.2 74.4504 7.52C74.4504 7.84 74.3437 8.10133 74.1304 8.304C73.917 8.496 73.629 8.592 73.2664 8.592ZM79.9049 18.128C79.1049 18.128 78.4009 17.9627 77.7929 17.632C77.1955 17.3013 76.7315 16.8267 76.4009 16.208C76.0702 15.5893 75.9049 14.8693 75.9049 14.048C75.9049 13.2267 76.0702 12.512 76.4009 11.904C76.7315 11.2853 77.1955 10.8107 77.7929 10.48C78.4009 10.1493 79.1049 9.984 79.9049 9.984C80.7049 9.984 81.4035 10.1493 82.0009 10.48C82.6089 10.8107 83.0729 11.2853 83.3929 11.904C83.7235 12.512 83.8889 13.2267 83.8889 14.048C83.8889 14.8693 83.7235 15.5893 83.3929 16.208C83.0729 16.8267 82.6089 17.3013 82.0009 17.632C81.4035 17.9627 80.7049 18.128 79.9049 18.128ZM79.8889 16.576C80.5395 16.576 81.0355 16.3627 81.3769 15.936C81.7182 15.5093 81.8889 14.88 81.8889 14.048C81.8889 13.2267 81.7182 12.6027 81.3769 12.176C81.0355 11.7387 80.5449 11.52 79.9049 11.52C79.2649 11.52 78.7689 11.7387 78.4169 12.176C78.0755 12.6027 77.9049 13.2267 77.9049 14.048C77.9049 14.88 78.0755 15.5093 78.4169 15.936C78.7582 16.3627 79.2489 16.576 79.8889 16.576Z" fill="white"/>
<path fill-rule="evenodd" clip-rule="evenodd" d="M4 2C3.46957 2 2.96086 2.21071 2.58579 2.58579C2.21071 2.96086 2 3.46957 2 4V15C2 15.7956 2.31607 16.5587 2.87868 17.1213C3.44129 17.6839 4.20435 18 5 18C5.79565 18 6.55871 17.6839 7.12132 17.1213C7.68393 16.5587 8 15.7956 8 15V4C8 3.46957 7.78929 2.96086 7.41421 2.58579C7.03914 2.21071 6.53043 2 6 2H4ZM5 16C5.26522 16 5.51957 15.8946 5.70711 15.7071C5.89464 15.5196 6 15.2652 6 15C6 14.7348 5.89464 14.4804 5.70711 14.2929C5.51957 14.1054 5.26522 14 5 14C4.73478 14 4.48043 14.1054 4.29289 14.2929C4.10536 14.4804 4 14.7348 4 15C4 15.2652 4.10536 15.5196 4.29289 15.7071C4.48043 15.8946 4.73478 16 5 16ZM10 14.243L14.9 9.343C15.2749 8.96795 15.4856 8.45933 15.4856 7.929C15.4856 7.39867 15.2749 6.89006 14.9 6.515L13.485 5.1C13.1099 4.72506 12.6013 4.51443 12.071 4.51443C11.5407 4.51443 11.0321 4.72506 10.657 5.1L10 5.757V14.243ZM16 18H9.071L15.071 12H16C16.5304 12 17.0391 12.2107 17.4142 12.5858C17.7893 12.9609 18 13.4696 18 14V16C18 16.5304 17.7893 17.0391 17.4142 17.4142C17.0391 17.7893 16.5304 18 16 18V18Z" fill="white"/>
</svg>
